<svg width="114" height="114" viewBox="0 0 114 114" fill="none" xmlns="http://www.w3.org/2000/svg">
<g clip-path="url(#clip0)">
<path d="M89.2964 102.6H17.1053V89.3016C17.1053 78.8093 25.6106 70.304 36.1029 70.304H89.2964V102.6Z" fill="#00BB77"/>
<path d="M49.4013 51.3063H64.5994V70.3039H49.4013V51.3063Z" fill="#BFA480"/>
<path d="M71.7003 70.304H42.3004C44.0257 77.0125 50.0738 81.7007 57.0003 81.7007C63.9269 81.7007 69.975 77.0125 71.7003 70.304Z" fill="#ACABB1"/>
<path d="M108.294 60.8051L107.952 68.4041H78.2401L77.8978 60.8051H108.294Z" fill="#57A4FF"/>
<path d="M107.952 68.4042L106.394 102.6H79.7975L78.2401 68.4042H107.952Z" fill="#BDFDFF"/>
<path d="M38.0028 26.6093V38.0079H34.2032C32.1077 38.0014 30.4102 36.3048 30.4037 34.2084V30.4088C30.4102 28.3134 32.1077 26.6158 34.2032 26.6093H38.0028Z" fill="#DFBF95"/>
<path d="M83.5971 30.4088V34.2084C83.5906 36.3048 81.8931 38.0014 79.7976 38.0079H75.998V26.6093H79.7976C81.8931 26.6158 83.5906 28.3134 83.5971 30.4088Z" fill="#DFBF95"/>
<path d="M77.8978 17.1105V20.91H34.2032V17.1105C34.2069 10.7646 38.1521 5.08944 44.099 2.87521C50.046 0.661908 56.7434 2.37615 60.8945 7.17473C64.4269 5.19055 68.7459 5.22672 72.244 7.27027C75.7411 9.31474 77.8932 13.0595 77.8978 17.1105Z" fill="#787680"/>
<path d="M75.9981 20.91V43.7072C75.9981 54.1995 67.4927 62.7049 57.0004 62.7049C46.5081 62.7049 38.0027 54.1995 38.0027 43.7072V20.91H75.9981Z" fill="#FFDAAA"/>
<path d="M66.4992 95.0009C66.502 97.0175 65.7024 98.9516 64.2767 100.377C62.8509 101.803 60.9168 102.603 58.9002 102.6H13.3058C9.10924 102.6 5.70673 99.1983 5.70673 95.0009H66.4992Z" fill="#E0E0E2"/>
<path d="M112.094 107.349C112.097 108.61 111.598 109.821 110.707 110.712C109.815 111.604 108.605 112.103 107.344 112.099H6.65658C4.03327 112.099 1.90717 109.973 1.90717 107.349C1.90717 104.727 4.03327 102.6 6.65658 102.6H107.344C109.967 102.6 112.094 104.727 112.094 107.349Z" fill="#FC4378"/>
<path d="M60.7999 76.0032V79.8028C60.7999 80.2777 60.7813 80.7526 60.7433 81.2276H60.7238C60.7211 81.3871 60.7081 81.5458 60.6858 81.7025C59.7285 89.3034 53.263 95.0037 45.6018 95.0009H26.6041C18.2101 95.0009 11.406 88.1968 11.406 79.8028V76.0032H60.7999Z" fill="#D9CCBC"/>
<path d="M108.378 100.805L110.194 60.8905C110.217 60.372 110.028 59.8673 109.669 59.4916C109.31 59.1169 108.814 58.9054 108.294 58.9054H100.695V50.1932L107.738 43.1507L105.051 40.4643L97.4521 48.0634C97.0958 48.4196 96.8955 48.9029 96.8955 49.4066V58.9054H77.8978C77.3793 58.9054 76.8821 59.1169 76.5231 59.4916C76.1641 59.8673 75.9749 60.372 75.9981 60.8905L76.3422 68.4042H66.4992V62.2986C73.487 58.7328 77.8895 51.5531 77.8978 43.7073V39.9077H79.7976C82.945 39.9077 85.4969 37.3559 85.4969 34.2084V30.4089C85.4969 27.2615 82.945 24.7096 79.7976 24.7096H77.8978V22.8098H79.7976V19.0103H32.3035V22.8098H36.103V24.7096H34.2032C31.0558 24.7096 28.5039 27.2615 28.5039 30.4089V34.2084C28.5039 37.3559 31.0558 39.9077 34.2032 39.9077H36.103V43.7073C36.1113 51.5531 40.5138 58.7328 47.5016 62.2986V68.4042H36.103C30.7803 68.3986 25.6598 70.4394 21.8 74.1035H11.406C10.3569 74.1035 9.50628 74.9541 9.50628 76.0033V79.8028C9.50721 84.9724 11.8522 89.8628 15.8818 93.1012H5.70675C4.65761 93.1012 3.80698 93.9518 3.80698 95.0009C3.81533 97.1001 4.52496 99.1353 5.82455 100.784C2.34041 101.211 -0.207758 104.28 0.0130154 107.784C0.233789 111.287 3.14652 114.012 6.65663 113.999H107.344C110.815 114.009 113.709 111.342 113.979 107.881C114.251 104.42 111.809 101.335 108.378 100.805ZM80.2308 70.304H96.8955V91.2014H100.695V70.304H105.961L104.578 100.7H81.6139L80.2308 70.304ZM106.307 62.7049L106.134 66.5044H100.695V62.7049H106.307ZM96.8955 62.7049V66.5044H80.0583L79.8848 62.7049H96.8955ZM77.8088 100.7H66.4501C67.707 99.0658 68.3925 97.063 68.399 95.0009C68.399 93.9518 67.5484 93.1012 66.4992 93.1012H56.3242C59.5671 90.4853 61.7415 86.7739 62.439 82.6664C67.4083 80.9994 71.3349 77.1424 73.09 72.2037H76.5092L77.8088 100.7ZM46.1148 74.1035C45.689 73.5024 45.3152 72.867 44.9961 72.2037H68.9899C67.6736 74.9523 65.4529 77.1656 62.6997 78.4735V76.0033C62.6997 74.9541 61.8491 74.1035 60.7999 74.1035H46.1148ZM79.7976 28.5091C80.8467 28.5091 81.6974 29.3598 81.6974 30.4089V34.2084C81.6974 35.2576 80.8467 36.1082 79.7976 36.1082H77.8978V28.5091H79.7976ZM34.2032 36.1082C33.1541 36.1082 32.3035 35.2576 32.3035 34.2084V30.4089C32.3035 29.3598 33.1541 28.5091 34.2032 28.5091H36.103V36.1082H34.2032ZM39.9025 43.7073V22.8098H74.0983V43.7073C74.0983 53.1504 66.4436 60.8051 57.0004 60.8051C47.5572 60.8051 39.9025 53.1504 39.9025 43.7073ZM51.3011 63.7958C55.0237 64.8746 58.9772 64.8746 62.6997 63.7958V68.4042H51.3011V63.7958ZM36.103 72.2037H40.8904C41.1177 72.8521 41.383 73.4866 41.6863 74.1035H28.2915C30.7052 72.8549 33.3841 72.2028 36.103 72.2037ZM13.3058 79.8028V77.903H58.9002V79.8028H51.3011V83.6023H58.3306C56.647 89.2293 51.4755 93.0891 45.6018 93.1012H26.6042C19.263 93.0928 13.3142 87.144 13.3058 79.8028ZM64.2748 96.9007C63.4668 99.1761 61.3148 100.697 58.9002 100.7H13.3058C10.8912 100.697 8.73913 99.1761 7.93118 96.9007H64.2748ZM107.344 110.199H6.65663C5.08246 110.199 3.80698 108.924 3.80698 107.349C3.80698 105.776 5.08246 104.5 6.65663 104.5H107.344C108.918 104.5 110.194 105.776 110.194 107.349C110.194 108.924 108.918 110.199 107.344 110.199Z" fill="#231F20"/>
<path d="M68.399 47.5068C68.399 44.3594 65.8471 41.8075 62.6997 41.8075C59.5523 41.8075 57.0004 44.3594 57.0004 47.5068H49.4014V51.3063H68.399V47.5068ZM60.8 47.5068C60.8 46.4577 61.6506 45.607 62.6997 45.607C63.7489 45.607 64.5995 46.4577 64.5995 47.5068H60.8Z" fill="#231F20"/>
<path d="M51.3011 36.1082V32.3086C51.3011 31.2595 50.4505 30.4089 49.4013 30.4089C48.3522 30.4089 47.5016 31.2595 47.5016 32.3086V36.1082C47.5016 37.1573 48.3522 38.0079 49.4013 38.0079C50.4505 38.0079 51.3011 37.1573 51.3011 36.1082Z" fill="#231F20"/>
<path d="M64.5995 38.0079C65.6486 38.0079 66.4992 37.1573 66.4992 36.1082V32.3086C66.4992 31.2595 65.6486 30.4089 64.5995 30.4089C63.5503 30.4089 62.6997 31.2595 62.6997 32.3086V36.1082C62.6997 37.1573 63.5503 38.0079 64.5995 38.0079Z" fill="#231F20"/>
<path d="M49.4014 3.81192C53.2621 3.80543 56.9346 5.48535 59.453 8.41106C60.043 9.09936 61.0374 9.27468 61.8277 8.82942C64.7711 7.17733 68.3702 7.20887 71.2848 8.91198C74.1985 10.6151 75.9925 13.7347 75.9981 17.1103H79.7976C79.792 12.654 77.5565 8.49548 73.8432 6.03172C70.129 3.56796 65.4288 3.12548 61.3203 4.85364C56.3938 0.0634107 49.0785 -1.31225 42.7485 1.36115C36.4184 4.03548 32.3044 10.2385 32.3035 17.1103H36.103C36.1113 9.7691 42.0602 3.82027 49.4014 3.81192Z" fill="#231F20"/>
<path d="M43.702 79.8027H47.5016V83.6023H43.702V79.8027Z" fill="#231F20"/>
</g>
<defs>
<clipPath id="clip0">
<rect width="114" height="114" fill="white"/>
</clipPath>
</defs>
</svg>
