<svg id="Layer_3" enable-background="new 0 0 64 64" height="512" viewBox="0 0 64 64" width="512" xmlns="http://www.w3.org/2000/svg"><g><path d="m4 46v16h56v-16" fill="#976947"/><path d="m4 54h56v8h-56z" fill="#674025"/><path d="m38 40v-10h12v10" fill="#976947"/><path d="m38 30h12v5h-12z" fill="#c18e59"/><path d="m6 22h4v18h-4z" fill="#f5cf88"/><path d="m54 22h4v18h-4z" fill="#f5cf88"/><path d="m17 19v-8h-5l-1 8z" fill="#d5cec2"/><path d="m47 19v-8h5l1 8z" fill="#d5cec2"/><g fill="#c66b60"><path d="m11 19 1-8h-4l-3 8z"/><path d="m41 11h6v8h-6z"/><path d="m29 11h6v8h-6z"/><path d="m17 11h6v8h-6z"/></g><path d="m23 11h6v8h-6z" fill="#d5cec2"/><path d="m35 11h6v8h-6z" fill="#d5cec2"/><path d="m53 19-1-8h4l3 8z" fill="#c66b60"/><path d="m40 5h15c.552 0 1 .448 1 1v5h-48v-5c0-.552.448-1 1-1h15" fill="#e7e4dd"/><path d="m8 25c-1.657 0-3-1.343-3-3v-3h6v3c0 1.657-1.343 3-3 3z" fill="#e47c6e"/><path d="m14 25c-1.657 0-3-1.343-3-3v-3h6v3c0 1.657-1.343 3-3 3z" fill="#e7e4dd"/><path d="m20 25c-1.657 0-3-1.343-3-3v-3h6v3c0 1.657-1.343 3-3 3z" fill="#e47c6e"/><path d="m26 25c-1.657 0-3-1.343-3-3v-3h6v3c0 1.657-1.343 3-3 3z" fill="#e7e4dd"/><path d="m32 25c-1.657 0-3-1.343-3-3v-3h6v3c0 1.657-1.343 3-3 3z" fill="#e47c6e"/><path d="m38 25c-1.657 0-3-1.343-3-3v-3h6v3c0 1.657-1.343 3-3 3z" fill="#e7e4dd"/><path d="m44 25c-1.657 0-3-1.343-3-3v-3h6v3c0 1.657-1.343 3-3 3z" fill="#e47c6e"/><path d="m50 25c-1.657 0-3-1.343-3-3v-3h6v3c0 1.657-1.343 3-3 3z" fill="#e7e4dd"/><path d="m56 25c-1.657 0-3-1.343-3-3v-3h6v3c0 1.657-1.343 3-3 3z" fill="#e47c6e"/><path d="m2 40h60v6h-60z" fill="#c18e59"/><path d="m24 2h16v6h-16z" fill="#c66b60"/><g><path d="m7 49h14v2h-14z" fill="#674025"/></g><g><path d="m23 49h2v2h-2z" fill="#674025"/></g><g><path d="m42.999 49h14v2h-14z" fill="#674025"/></g><g><path d="m39 49h2v2h-2z" fill="#674025"/></g><g><path d="m23 57h14v2h-14z" fill="#976947"/></g><g><path d="m39 57h2v2h-2z" fill="#976947"/></g><g><path d="m47 57h10v2h-10z" fill="#976947"/></g><g><path d="m7 57h10v2h-10z" fill="#976947"/></g><path d="m14 40v-5.586c0-.906.36-1.774 1-2.414.64-.64 1-1.509 1-2.414v-1.586h4v1.586c0 .906.36 1.774 1 2.414.64.64 1 1.509 1 2.414v5.586" fill="#a8b0bc"/><path d="m24 2v6h7.889c2.171-1.425 3.85-3.525 4.76-6z" fill="#e47c6e"/><path d="m20.646 31.568c-.413-.576-.646-1.265-.646-1.982v-1.586h-4v1.586c0 .906-.36 1.774-1 2.414s-1 1.509-1 2.414v5.082c3.286-1.456 5.77-4.373 6.646-7.928z" fill="#c1c8d1"/></g></svg>