<svg id="Layer_1" enable-background="new 0 0 512 512" height="512" viewBox="0 0 512 512" width="512" xmlns="http://www.w3.org/2000/svg"><g><g><path d="m478.872 504.5h-401.56c-14.087 0-25.506-11.42-25.506-25.506v-445.988c0-14.086 11.419-25.506 25.506-25.506h401.559c14.087 0 25.506 11.42 25.506 25.506v445.987c.001 14.087-11.419 25.507-25.505 25.507z" fill="#fff5f6"/><path d="m478.872 7.5h-40c14.087 0 25.506 11.42 25.506 25.506v445.987c0 14.087-11.42 25.506-25.506 25.506h40c14.087 0 25.506-11.42 25.506-25.506v-445.987c0-14.086-11.42-25.506-25.506-25.506z" fill="#f7e9eb"/><g><path d="m51.806 320.892v158.102c0 14.087 11.42 25.506 25.506 25.506h401.56c14.087 0 25.506-11.42 25.506-25.506v-158.102z" fill="#fc4378"/></g><path d="m464.378 320.892v158.102c0 14.087-11.42 25.506-25.506 25.506h40c14.087 0 25.506-11.42 25.506-25.506v-158.102z" fill="#ed2860"/><g fill="#ffc326"><path d="m7.378 103.527 56.427-.669h.163c10.971 0 19.908 8.849 19.996 19.839.089 11.045-8.793 20.071-19.839 20.16l-56.427.669c-.055 0-.109 0-.163 0z"/><path d="m9.99 369.144 56.427-.669h.163c10.971 0 19.908 8.849 19.996 19.839.089 11.045-8.793 20.071-19.839 20.16l-56.427.669c-.055 0-.109 0-.163 0z"/></g><g><path d="m416.55 258.272h-276.916c-8.284 0-15-6.716-15-15s6.716-15 15-15h276.916c8.284 0 15 6.716 15 15s-6.716 15-15 15z" fill="#c2e7fc"/><path d="m263.092 123.551v-34.516c0-8.284 6.716-15 15-15s15 6.716 15 15v34.516z" fill="#c2e7fc"/><g><path d="m152.37 228.273c0-68.882 55.84-124.722 124.722-124.722s124.722 55.84 124.722 124.722z" fill="#dbf2ff"/></g><path d="m277.092 103.551c-6.809 0-13.487.554-20 1.604 59.373 9.571 104.722 61.045 104.722 123.118h40c-.001-68.882-55.84-124.722-124.722-124.722z" fill="#d1eeff"/></g></g><g fill="#060606"><path d="m504.378 406.743c4.143 0 7.5-3.358 7.5-7.5v-366.237c0-18.2-14.807-33.006-33.007-33.006h-332.772c-4.143 0-7.5 3.358-7.5 7.5s3.357 7.5 7.5 7.5h332.772c9.929 0 18.007 8.078 18.007 18.006v280.385h-437.572v-163.035h4.88c35.481-.288 34.907-55-.218-55h-4.662v-62.35c0-9.928 8.078-18.006 18.007-18.006h26.847c4.143 0 7.5-3.358 7.5-7.5s-3.357-7.5-7.5-7.5h-26.847c-18.2 0-33.007 14.807-33.007 33.006v62.351h-36.928c-9.675 0-9.675 15 0 15h56.427c15.963 0 16.56 24.866.32 24.999-18.863 0-37.727 0-56.59 0-9.668 0-9.621 14.972.031 15h36.739v210.617h-34.315c-9.674 0-9.675 15 0 15h56.427c15.963 0 16.56 24.866.32 24.999h-56.48s0 0-.109 0c-9.668 0-9.621 14.972.031 15h34.127v63.021c0 18.2 14.807 33.006 33.007 33.006h401.559c18.2 0 33.007-14.807 33.007-33.006v-38.177c0-9.674-15-9.674-15 0v38.177c0 9.929-8.078 18.006-18.007 18.006h-401.559c-9.929 0-18.007-8.078-18.007-18.006v-63.021h7.492c35.662-.289 34.776-54.676-.381-54.999h-7.111v-32.583h437.572v70.851c0 4.144 3.357 7.502 7.5 7.502z"/><path d="m417.585 388.808c0-4.142-3.357-7.5-7.5-7.5h-263.986c-4.143 0-7.5 3.358-7.5 7.5s3.357 7.5 7.5 7.5h263.986c4.143 0 7.5-3.358 7.5-7.5z"/><path d="m191.099 433.316c-4.143 0-7.5 3.358-7.5 7.5s3.357 7.5 7.5 7.5h173.986c4.143 0 7.5-3.358 7.5-7.5s-3.357-7.5-7.5-7.5z"/><path d="m139.634 265.772h276.916c28.937 0 29.017-45 0-45h-7.454c-3.458-61.522-49.164-111.941-108.504-122.629v-9.108c0-28.937-45-29.017-45 0v8.773c-60.31 9.905-107.008 60.754-110.504 122.964h-5.454c-28.937 0-29.018 45 0 45zm130.958-176.737c0-9.672 15-9.672 15 0v7.296c-4.995-.318-10.001-.363-15-.12zm6.5 22.016c62.117 0 113.094 48.568 116.975 109.722h-233.95c3.881-61.155 54.858-109.722 116.975-109.722zm-137.458 124.721h276.916c9.672 0 9.672 15 0 15h-276.916c-9.672 0-9.672-15 0-15z"/><path d="m312.001 135.211c-9.061-3.389-14.314 10.663-5.252 14.05 15.688 5.865 29.106 16.229 38.803 29.971 5.6 7.936 17.814-.771 12.256-8.648-11.443-16.216-27.283-28.448-45.807-35.373z"/></g></g></svg>